<svg viewBox="0 0 224 280" fill="none" xmlns="http://www.w3.org/2000/svg">
  <path
    d="M112 0.5C115.068 0.5 117.936 2.71609 120.071 5.88353C122.196 9.03734 123.5 13.0065 123.5 16.2595V127.595C123.5 130.87 122.401 135.101 120.382 138.503C118.358 141.915 115.491 144.37 112 144.37C108.954 144.37 106.085 141.929 103.939 138.493C101.807 135.08 100.5 130.852 100.5 127.595V16.2595C100.5 13.0065 101.804 9.03734 103.929 5.88353C106.064 2.71609 108.932 0.5 112 0.5Z"
    fill="url(#paint0_linear_576_37325)" stroke="#0D74CE" />
  <path d="M119 140.297C117 135.595 115 134.708 112 134.708C109 134.708 107 135.595 105 140.297" stroke="#FF92BB"
    stroke-opacity="0.5" />
  <path
    d="M117 11.5C117 11.2239 117.224 11 117.5 11V11C117.776 11 118 11.2239 118 11.5V113.5C118 113.776 117.776 114 117.5 114V114C117.224 114 117 113.776 117 113.5V11.5Z"
    fill="#92CCFF" fill-opacity="0.25" />
  <path
    d="M106 11.5C106 11.2239 106.224 11 106.5 11V11C106.776 11 107 11.2239 107 11.5V113.5C107 113.776 106.776 114 106.5 114V114C106.224 114 106 113.776 106 113.5V11.5Z"
    fill="#92CCFF" fill-opacity="0.25" />
  <path
    d="M120 119.742V118.449C120 118.449 117.786 121.22 112 121.22C106.214 121.22 104 118.449 104 118.449V119.742C104 119.742 106.857 124.546 112 124.546C117.143 124.546 120 119.742 120 119.742Z"
    fill="#92CCFF" />
  <path opacity="0.5"
    d="M110 173.4C110 159.35 108.938 131 105.5 131C102.462 131 99 159.35 99 173.4C99 179.76 101.462 184 104.5 184C107.538 184 110 178.97 110 173.4Z"
    fill="url(#paint1_linear_576_37325)" />
  <path opacity="0.5"
    d="M125 173.4C125 159.35 121.938 131 118.5 131C115.462 131 114 159.35 114 173.4C114 179.76 116.462 184 119.5 184C122.538 184 125 178.97 125 173.4Z"
    fill="url(#paint2_linear_576_37325)" />
  <path
    d="M120 73.219C120 72.9429 120.224 72.719 120.5 72.719C120.776 72.719 121 72.9429 121 73.219V80.3487C121 80.6249 120.776 80.8487 120.5 80.8487C120.224 80.8487 120 80.6249 120 80.3487V73.219Z"
    fill="#93C2EC" />
  <path
    d="M103 73.219C103 72.9429 103.224 72.719 103.5 72.719C103.776 72.719 104 72.9429 104 73.219V80.3487C104 80.6249 103.776 80.8487 103.5 80.8487C103.224 80.8487 103 80.6249 103 80.3487V73.219Z"
    fill="#93C2EC" />
  <path
    d="M120 38.6675C120 38.3913 120.224 38.1675 120.5 38.1675C120.776 38.1675 121 38.3913 121 38.6675V45.7972C121 46.0734 120.776 46.2972 120.5 46.2972C120.224 46.2972 120 46.0734 120 45.7972V38.6675Z"
    fill="#93C2EC" />
  <path
    d="M103 38.6675C103 38.3913 103.224 38.1675 103.5 38.1675C103.776 38.1675 104 38.3913 104 38.6675V45.7972C104 46.0734 103.776 46.2972 103.5 46.2972C103.224 46.2972 103 46.0734 103 45.7972V38.6675Z"
    fill="#93C2EC" />
  <path
    d="M120 17.3433C120 17.0671 120.224 16.8433 120.5 16.8433C120.776 16.8433 121 17.0671 121 17.3433V24.473C121 24.7491 120.776 24.973 120.5 24.973C120.224 24.973 120 24.7491 120 24.473V17.3433Z"
    fill="#93C2EC" />
  <path
    d="M103 17.3433C103 17.0671 103.224 16.8433 103.5 16.8433C103.776 16.8433 104 17.0671 104 17.3433V24.473C104 24.7491 103.776 24.973 103.5 24.973C103.224 24.973 103 24.7491 103 24.473V17.3433Z"
    fill="#93C2EC" />
  <path
    d="M120 107.77C120 107.494 120.224 107.27 120.5 107.27C120.776 107.27 121 107.494 121 107.77V114.9C121 115.176 120.776 115.4 120.5 115.4C120.224 115.4 120 115.176 120 114.9V107.77Z"
    fill="#93C2EC" />
  <path
    d="M103 107.77C103 107.494 103.224 107.27 103.5 107.27C103.776 107.27 104 107.494 104 107.77V114.9C104 115.176 103.776 115.4 103.5 115.4C103.224 115.4 103 115.176 103 114.9V107.77Z"
    fill="#93C2EC" />
  <path
    d="M120 87.446C120 87.1699 120.224 86.946 120.5 86.946C120.776 86.946 121 87.1699 121 87.446V94.5758C121 94.8519 120.776 95.0758 120.5 95.0758C120.224 95.0758 120 94.8519 120 94.5758V87.446Z"
    fill="#93C2EC" />
  <path
    d="M103 87.446C103 87.1699 103.224 86.946 103.5 86.946C103.776 86.946 104 87.1699 104 87.446V94.5758C104 94.8519 103.776 95.0758 103.5 95.0758C103.224 95.0758 103 94.8519 103 94.5758V87.446Z"
    fill="#93C2EC" />
  <path
    d="M120 52.8945C120 52.6184 120.224 52.3945 120.5 52.3945C120.776 52.3945 121 52.6184 121 52.8945V60.0243C121 60.3004 120.776 60.5243 120.5 60.5243C120.224 60.5243 120 60.3004 120 60.0243V52.8945Z"
    fill="#93C2EC" />
  <path
    d="M103 52.8945C103 52.6184 103.224 52.3945 103.5 52.3945C103.776 52.3945 104 52.6184 104 52.8945V60.0243C104 60.3004 103.776 60.5243 103.5 60.5243C103.224 60.5243 103 60.3004 103 60.0243V52.8945Z"
    fill="#93C2EC" />
  <path d="M123.5 104.222C123.5 99.5192 114 99.1406 112 99.1406C110 99.1406 100.5 99.5192 100.5 104.222"
    stroke="#0D74CE" />
  <path d="M123.5 69.6699C123.5 64.9675 114 64.5888 112 64.5888C110 64.5888 100.5 64.9675 100.5 69.6699"
    stroke="#0D74CE" />
  <path d="M123.5 35.1191C123.5 30.4167 114 30.0381 112 30.0381C110 30.0381 100.5 30.4167 100.5 35.1191"
    stroke="#0D74CE" />
  <g style="mix-blend-mode:color-dodge" opacity="0.125" filter="url(#filter0_f_576_37325)">
    <ellipse cx="112" cy="145" rx="48" ry="80" fill="#73B8F5" />
  </g>
  <defs>
    <filter id="filter0_f_576_37325" x="0" y="1" width="224" height="288" filterUnits="userSpaceOnUse"
      color-interpolation-filters="sRGB">
      <feFlood flood-opacity="0" result="BackgroundImageFix" />
      <feBlend mode="normal" in="SourceGraphic" in2="BackgroundImageFix" result="shape" />
      <feGaussianBlur stdDeviation="32" result="effect1_foregroundBlur_576_37325" />
    </filter>
    <linearGradient id="paint0_linear_576_37325" x1="112" y1="0" x2="112" y2="144.87" gradientUnits="userSpaceOnUse">
      <stop stop-color="#08070C" />
      <stop offset="1" stop-color="#0D74CE" stop-opacity="0.55" />
    </linearGradient>
    <linearGradient id="paint1_linear_576_37325" x1="104.5" y1="184" x2="104.5" y2="131" gradientUnits="userSpaceOnUse">
      <stop offset="0.114583" stop-color="white" stop-opacity="0" />
      <stop offset="0.53125" stop-color="#999999" stop-opacity="0.447917" />
      <stop offset="1" stop-color="white" stop-opacity="0.4" />
    </linearGradient>
    <linearGradient id="paint2_linear_576_37325" x1="119.5" y1="184" x2="119.5" y2="131" gradientUnits="userSpaceOnUse">
      <stop offset="0.114583" stop-color="white" stop-opacity="0" />
      <stop offset="0.53125" stop-color="#999999" stop-opacity="0.447917" />
      <stop offset="1" stop-color="white" stop-opacity="0.4" />
    </linearGradient>
  </defs>
</svg>
